<?xml version="1.0" encoding="UTF-8" standalone="no"?>
<!-- Created with Inkscape (http://www.inkscape.org/) -->

<svg
   xmlns:dc="http://purl.org/dc/elements/1.1/"
   xmlns:cc="http://creativecommons.org/ns#"
   xmlns:rdf="http://www.w3.org/1999/02/22-rdf-syntax-ns#"
   xmlns:svg="http://www.w3.org/2000/svg"
   xmlns="http://www.w3.org/2000/svg"
   xmlns:sodipodi="http://sodipodi.sourceforge.net/DTD/sodipodi-0.dtd"
   xmlns:inkscape="http://www.inkscape.org/namespaces/inkscape"
   width="744.09448"
   height="1052.3622"
   id="svg2"
   version="1.1"
   inkscape:version="0.48.4 r9939"
   sodipodi:docname="Deckblatt.svg">
  <defs
     id="defs4" />
  <sodipodi:namedview
     id="base"
     pagecolor="#ffffff"
     bordercolor="#666666"
     borderopacity="1.0"
     inkscape:pageopacity="0.0"
     inkscape:pageshadow="2"
     inkscape:zoom="0.98994949"
     inkscape:cx="262.78281"
     inkscape:cy="730.17603"
     inkscape:document-units="mm"
     inkscape:current-layer="layer3"
     showgrid="false"
     inkscape:window-width="1680"
     inkscape:window-height="1000"
     inkscape:window-x="0"
     inkscape:window-y="0"
     inkscape:window-maximized="1"
     showguides="false"
     inkscape:guide-bbox="true"
     units="mm"
     inkscape:snap-grids="false"
     inkscape:snap-bbox="true"
     inkscape:snap-bbox-midpoints="true"
     inkscape:snap-global="false"
     inkscape:snap-to-guides="true">
    <sodipodi:guide
       orientation="0,1"
       position="-35.433071,350.7874"
       id="guide3069" />
    <sodipodi:guide
       orientation="0,1"
       position="-35.433071,701.5748"
       id="guide3071" />
    <inkscape:grid
       units="mm"
       empspacing="10"
       visible="true"
       enabled="true"
       snapvisiblegridlinesonly="true"
       type="xygrid"
       id="grid3073" />
    <sodipodi:guide
       orientation="0,1"
       position="-35.433071,526.1811"
       id="guide3079" />
    <sodipodi:guide
       orientation="0,1"
       position="-35.433071,175.3937"
       id="guide3081" />
    <sodipodi:guide
       orientation="0,1"
       position="-35.433071,876.9685"
       id="guide3083" />
    <sodipodi:guide
       orientation="0,1"
       position="-35.433071,789.27165"
       id="guide3085" />
    <sodipodi:guide
       orientation="0,1"
       position="-35.433071,613.87795"
       id="guide3087" />
    <sodipodi:guide
       orientation="0,1"
       position="-35.433071,87.69685"
       id="guide3089" />
  </sodipodi:namedview>
  <metadata
     id="metadata7">
    <rdf:RDF>
      <cc:Work
         rdf:about="">
        <dc:format>image/svg+xml</dc:format>
        <dc:type
           rdf:resource="http://purl.org/dc/dcmitype/StillImage" />
        <dc:title />
      </cc:Work>
    </rdf:RDF>
  </metadata>
  <g
     inkscape:groupmode="layer"
     id="layer3"
     inkscape:label="Deckblatt"
     transform="translate(0,-2.5390623e-6)"
     style="display:inline">
    <g
       id="g3055"
       transform="translate(93.781433,248.90889)">
      <text
         sodipodi:linespacing="125%"
         id="text3047"
         y="434.14883"
         x="279.31418"
         style="font-size:16px;font-style:normal;font-variant:normal;font-weight:normal;font-stretch:normal;text-align:center;line-height:125%;letter-spacing:2.13999987px;word-spacing:0px;text-anchor:middle;fill:#000000;fill-opacity:1;stroke:none;font-family:EB Garamond 12 All SC;-inkscape-font-specification:EB Garamond 12 All SC"
         xml:space="preserve"><tspan
           y="434.14883"
           x="280.38419"
           id="tspan3049"
           sodipodi:role="line">jan dismas</tspan></text>
      <text
         sodipodi:linespacing="125%"
         id="text3051"
         y="452.66589"
         x="277.94019"
         style="font-size:12px;font-style:normal;font-variant:normal;font-weight:normal;font-stretch:normal;text-align:center;line-height:125%;letter-spacing:5.19000053px;word-spacing:0px;text-anchor:middle;fill:#d40000;fill-opacity:1;stroke:none;font-family:EB Garamond;-inkscape-font-specification:EB Garamond"
         xml:space="preserve"><tspan
           style="font-size:20px;letter-spacing:5.19000053px;fill:#d40000"
           y="452.66589"
           x="280.53519"
           id="tspan3053"
           sodipodi:role="line">ZELENKA</tspan></text>
    </g>
    <text
       xml:space="preserve"
       style="font-size:12px;font-style:normal;font-variant:normal;font-weight:normal;font-stretch:normal;text-align:center;line-height:110.00000238%;letter-spacing:0px;word-spacing:0px;text-anchor:middle;fill:#000000;fill-opacity:1;stroke:none;font-family:EB Garamond;-inkscape-font-specification:EB Garamond"
       x="372.3208"
       y="412.09424"
       id="text3061"
       sodipodi:linespacing="110%"><tspan
         sodipodi:role="line"
         id="tspan3063"
         x="372.3208"
         y="412.09424"
         style="font-size:14px;font-style:normal;line-height:110.00000238%;-inkscape-font-specification:EB Garamond">Missa: Ultimarum Sexta et fortè omnium ultima:</tspan><tspan
         sodipodi:role="line"
         x="372.3208"
         y="427.49423"
         id="tspan3065"
         style="font-size:14px;font-style:normal;line-height:110.00000238%;-inkscape-font-specification:EB Garamond">dicta:</tspan><tspan
         sodipodi:role="line"
         x="372.3208"
         y="442.89423"
         id="tspan3067"
         style="font-size:14px;font-style:normal;line-height:110.00000238%;-inkscape-font-specification:EB Garamond">Missa OO: SSrum.</tspan><tspan
         sodipodi:role="line"
         x="372.3208"
         y="458.29425"
         style="font-size:14px;font-style:normal;line-height:110.00000238%;-inkscape-font-specification:EB Garamond"
         id="tspan3075" /><tspan
         sodipodi:role="line"
         x="372.3208"
         y="473.69424"
         style="font-size:14px;font-style:normal;line-height:110.00000238%;-inkscape-font-specification:EB Garamond"
         id="tspan3077">ZWV Z 21</tspan></text>
    <text
       xml:space="preserve"
       style="font-size:14px;font-style:normal;font-variant:normal;font-weight:normal;font-stretch:normal;text-align:center;line-height:125%;letter-spacing:1.84000015px;word-spacing:0px;text-anchor:middle;fill:#000000;fill-opacity:1;stroke:none;font-family:EB Garamond 12 All SC;-inkscape-font-specification:EB Garamond 12 All SC"
       x="372.06738"
       y="967.76636"
       id="text3099"
       sodipodi:linespacing="125%"><tspan
         sodipodi:role="line"
         x="372.9874"
         y="967.76636"
         id="tspan3023">full score</tspan></text>
    <text
       sodipodi:linespacing="110%"
       id="text3021"
       y="876.96851"
       x="371.86884"
       style="font-size:12px;font-style:normal;font-variant:normal;font-weight:normal;font-stretch:normal;text-align:center;line-height:110.00000238%;letter-spacing:0px;word-spacing:0px;text-anchor:middle;fill:#000000;fill-opacity:1;stroke:none;font-family:EB Garamond;-inkscape-font-specification:EB Garamond"
       xml:space="preserve"><tspan
         id="tspan3032"
         style="font-size:14px;font-style:normal;line-height:110.00000238%;-inkscape-font-specification:EB Garamond"
         y="876.96851"
         x="371.86884"
         sodipodi:role="line">2 Ob / 2 Vl / Va / SATB (soli) / SATB (coro) / BOrg</tspan></text>
    <g
       style="font-size:72px;font-style:normal;font-variant:normal;font-weight:normal;font-stretch:normal;text-align:center;line-height:82.99999833%;letter-spacing:0px;word-spacing:0px;text-anchor:middle;fill:none;stroke:#808080;stroke-width:0.625;stroke-miterlimit:4;stroke-dasharray:none;font-family:EB Garamond;-inkscape-font-specification:EB Garamond"
       id="text3020"
       transform="translate(46.561241,129.30321)">
      <path
         d="m 131.22325,115.93133 -1.224,-23.76 c -0.216,-4.103996 0.576,-5.544001 2.808,-6.48 2.88,-1.223999 3.456,-1.440001 3.456,-2.16 0,-0.719999 -0.288,-1.224 -1.152,-1.224 -2.304,0 -7.272,0.72 -9.144,0.72 -1.872,0 -2.88,10e-7 -3.672,1.656 l -11.304,23.472 c -1.368,2.736 -1.656,1.584 -2.232,0.072 l -8.424,-20.664 c -1.367999,-3.239997 -2.592002,-4.536 -4.536,-4.536 -3.311997,0 -5.400003,-0.36 -7.992,-0.36 -0.863999,0 -2.448,-0.072 -2.448,1.008 0,1.151999 2.592001,2.232001 3.888,3.456 1.799998,1.655998 2.951999,3.024005 2.304,8.136 l -2.448,19.152 c -0.503999,3.6 -1.728002,6.48 -4.176,7.56 -1.655998,0.72 -3.96,1.08 -3.96,2.16 0,0.72 1.584001,1.152 2.376,1.224 0.503999,0 3.240003,-0.432 6.624,-0.432 3.455997,0 6.624001,0.432 7.128,0.432 0.791999,-0.072 2.304,-0.504 2.304,-1.224 0,-1.08 -2.376002,-1.44 -3.96,-2.16 -1.871998,-0.864 -2.376,-4.392 -2.232,-6.336 l 1.224,-20.088 c 0.072,-1.799998 0.720001,-2.807997 1.8,-0.072 l 8.856,22.68 c 1.512,3.888 2.088,4.464 2.808,4.464 0.648,0 3.672,-6.192 3.96,-6.84 l 9.72,-22.32 c 0.504,-1.295999 1.8,-1.583999 1.872,-0.216 l 0.936,22.68 c 0.144,2.664 -0.936,4.968 -3.384,6.048 -1.584,0.72 -3.96,1.08 -3.96,2.16 0,0.72 1.584,1.152 2.376,1.224 0.504,0 4.752,-0.432 8.136,-0.432 3.456,0 8.208,0.432 8.712,0.432 0.792,-0.072 2.304,-0.504 2.304,-1.224 0,-1.08 -2.376,-1.44 -3.96,-2.16 -2.448,-1.08 -3.24,-3.384 -3.384,-6.048"
         style="fill:none;stroke:#808080;stroke-width:0.625;stroke-miterlimit:4;stroke-dasharray:none"
         id="path3027"
         inkscape:connector-curvature="0" />
      <path
         d="m 158.69125,82.66733 c -2.448,0 -5.4,0.36 -7.92,0.36 -2.592,0 -5.184,-0.36 -7.992,-0.36 -1.08,0 -2.52,0.432001 -2.52,1.296 0,0.647999 0.504,1.008 1.152,1.224 4.104,1.151999 5.904,1.224004 5.904,5.328 l 0,26.28 c 0,2.664 -0.936,4.104 -3.384,5.184 -1.584,0.72 -3.96,1.08 -3.96,2.16 0,0.72 1.584,1.152 2.376,1.224 0.504,0 4.752,-0.432 8.136,-0.432 3.456,0 8.208,0.432 8.712,0.432 0.792,-0.072 2.304,-0.504 2.304,-1.224 0,-1.08 -2.376,-1.44 -3.96,-2.16 -2.448,-1.08 -3.384,-2.52 -3.384,-5.184 l 0,-26.28 c 0,-4.103996 1.872,-4.176001 5.976,-5.328 0.648,-0.216 1.08,-0.576001 1.08,-1.224 0,-0.863999 -1.44,-1.296 -2.52,-1.296"
         style="fill:none;stroke:#808080;stroke-width:0.625;stroke-miterlimit:4;stroke-dasharray:none"
         id="path3029"
         inkscape:connector-curvature="0" />
      <path
         d="m 179.704,81.94733 c -7.05599,0 -12.816,5.328007 -12.816,12.096 0,3.527996 1.656,6.12 4.248,8.28 l 9.72,8.208 c 1.8,1.512 2.88,3.312 2.88,5.76 0,3.6 -2.664,6.912 -6.264,6.912 -4.176,0 -6.984,-2.088 -7.776,-4.68 -0.648,-2.16 -1.296,-3.384 -2.448,-3.384 -0.72,0 -1.224,0.864 -1.368,1.728 -0.216,0.936 -0.504,3.96 -0.504,4.968 0,1.008 0.648,1.368 3.312,2.592 1.728,0.792 5.04,1.584 7.56,1.584 7.19999,0 14.472,-5.25601 14.472,-12.312 0,-3.024 -1.224,-5.472 -3.456,-7.344 l -10.152,-8.568 c -2.16,-1.799998 -3.672,-3.672003 -3.672,-6.048 0,-3.167997 2.808,-5.688 5.904,-5.688 2.088,0 4.968,0.864002 5.688,2.592 1.08,2.591997 2.016,3.312 2.88,3.312 1.08,0 1.44,-1.008001 1.44,-1.944 0,-1.367999 -0.072,-2.952001 -0.288,-4.104 -0.144,-0.791999 -0.792,-1.368001 -2.16,-2.088 -1.584,-0.791999 -4.896,-1.872 -7.2,-1.872"
         style="fill:none;stroke:#808080;stroke-width:0.625;stroke-miterlimit:4;stroke-dasharray:none"
         id="path3032"
         inkscape:connector-curvature="0" />
      <path
         d="m 209.09462,81.94733 c -7.05599,0 -12.816,5.328007 -12.816,12.096 0,3.527996 1.65601,6.12 4.248,8.28 l 9.72,8.208 c 1.8,1.512 2.88,3.312 2.88,5.76 0,3.6 -2.664,6.912 -6.264,6.912 -4.17599,0 -6.984,-2.088 -7.776,-4.68 -0.64799,-2.16 -1.296,-3.384 -2.448,-3.384 -0.71999,0 -1.224,0.864 -1.368,1.728 -0.21599,0.936 -0.504,3.96 -0.504,4.968 0,1.008 0.64801,1.368 3.312,2.592 1.728,0.792 5.04001,1.584 7.56,1.584 7.2,0 14.472,-5.25601 14.472,-12.312 0,-3.024 -1.224,-5.472 -3.456,-7.344 l -10.152,-8.568 c -2.15999,-1.799998 -3.672,-3.672003 -3.672,-6.048 0,-3.167997 2.80801,-5.688 5.904,-5.688 2.088,0 4.96801,0.864002 5.688,2.592 1.08,2.591997 2.01601,3.312 2.88,3.312 1.08,0 1.44,-1.008001 1.44,-1.944 0,-1.367999 -0.072,-2.952001 -0.288,-4.104 -0.14399,-0.791999 -0.792,-1.368001 -2.16,-2.088 -1.58399,-0.791999 -4.896,-1.872 -7.2,-1.872"
         style="fill:none;stroke:#808080;stroke-width:0.625;stroke-miterlimit:4;stroke-dasharray:none"
         id="path3034"
         inkscape:connector-curvature="0" />
      <path
         d="m 238.91725,105.63533 5.04,-14.328 c 0.288,-0.719999 0.576,-0.935999 0.792,-0.216 l 4.392,13.464 c 0.72,2.304 0.648,2.592 -0.792,2.592 l -8.784,0 c -1.296,0 -1.08,-0.36 -0.648,-1.512 m 20.52,19.296 c 2.376,0 4.968,0.432 6.624,0.432 1.368,0 2.088,-0.36 2.088,-1.152 0,-0.72 -0.648,-1.44 -2.88,-2.232 -3.528,-1.296 -4.32,-3.24001 -6.408,-9.072 l -9.504,-26.856 c -1.008,-2.807997 -1.44,-5.184 -2.664,-5.184 -0.432,0 -1.728,2.016 -3.096,2.16 -0.792,0.072 -0.792,1.008003 -2.016,4.104 l -11.016,30.456 c -1.08,2.952 -1.008,3.312 -3.384,4.392 -1.584,0.72 -3.96,1.08 -3.96,2.16 0,0.792 1.008,1.224 2.376,1.224 1.08,0 2.736,-0.432 4.536,-0.432 1.368,0 4.536,0.432 5.904,0.432 1.8,0 2.52,-0.432 2.52,-1.224 0,-0.72 -0.792,-1.512 -2.664,-2.016 -2.088,-0.576 -2.016,-1.728 -1.584,-3.024 l 2.736,-7.848 c 0.288,-0.72 0.792,-0.792 1.152,-0.792 l 12.024,0 c 0.576,0 0.936,0.216 1.152,0.864 l 2.088,6.84 c 0.36,1.224 0.504,2.592 -2.088,3.816 -1.584,0.72 -3.888,1.08 -3.888,2.16 0,0.792 1.368,1.224 2.304,1.224 2.16,0 4.896,-0.432 9.648,-0.432"
         style="fill:none;stroke:#808080;stroke-width:0.625;stroke-miterlimit:4;stroke-dasharray:none"
         id="path3036"
         inkscape:connector-curvature="0" />
      <path
         d="m 295.039,101.45933 c 0,-7.919992 5.76001,-15.984 13.68,-15.984 9.35999,0 14.328,10.224009 14.328,19.584 0,8.56799 -3.74401,17.712 -12.312,17.712 -10.00799,0 -15.696,-11.30401 -15.696,-21.312 m 16.416,-19.296 c -14.25599,0 -24.48,8.208013 -24.48,21.816 0,13.10399 9.86401,22.104 22.752,22.104 12.31199,0 21.384,-10.87201 21.384,-23.184 0,-10.51199 -9.86401,-20.736 -19.656,-20.736"
         style="fill:none;stroke:#808080;stroke-width:0.625;stroke-miterlimit:4;stroke-dasharray:none"
         id="path3038"
         inkscape:connector-curvature="0" />
      <path
         d="m 385.89512,115.93133 -1.22399,-23.76 c -0.216,-4.103996 0.576,-5.544001 2.80799,-6.48 2.88,-1.223999 3.456,-1.440001 3.456,-2.16 0,-0.719999 -0.288,-1.224 -1.152,-1.224 -2.30399,0 -7.272,0.72 -9.144,0.72 -1.87199,0 -2.88,10e-7 -3.672,1.656 l -11.304,23.472 c -1.36799,2.736 -1.656,1.584 -2.232,0.072 l -8.424,-20.664 c -1.36799,-3.239997 -2.592,-4.536 -4.53599,-4.536 -3.312,0 -5.40001,-0.36 -7.99201,-0.36 -0.86399,0 -2.448,-0.072 -2.448,1.008 0,1.151999 2.59201,2.232001 3.888,3.456 1.8,1.655998 2.952,3.024005 2.304,8.136 l -2.448,19.152 c -0.50399,3.6 -1.728,6.48 -4.17599,7.56 -1.656,0.72 -3.96001,1.08 -3.96001,2.16 0,0.72 1.58401,1.152 2.376,1.224 0.504,0 3.24001,-0.432 6.624,-0.432 3.456,0 6.62401,0.432 7.12801,0.432 0.79199,-0.072 2.30399,-0.504 2.30399,-1.224 0,-1.08 -2.376,-1.44 -3.95999,-2.16 -1.872,-0.864 -2.376,-4.392 -2.23201,-6.336 l 1.224,-20.088 c 0.072,-1.799998 0.72001,-2.807997 1.8,-0.072 l 8.856,22.68 c 1.512,3.888 2.08801,4.464 2.808,4.464 0.648,0 3.67201,-6.192 3.96,-6.84 l 9.72,-22.32 c 0.504,-1.295999 1.80001,-1.583999 1.872,-0.216 l 0.936,22.68 c 0.144,2.664 -0.936,4.968 -3.38399,6.048 -1.584,0.72 -3.96001,1.08 -3.96001,2.16 0,0.72 1.58401,1.152 2.37601,1.224 0.50399,0 4.752,-0.432 8.13599,-0.432 3.456,0 8.20801,0.432 8.712,0.432 0.792,-0.072 2.304,-0.504 2.304,-1.224 0,-1.08 -2.376,-1.44 -3.95999,-2.16 -2.448,-1.08 -3.24001,-3.384 -3.38401,-6.048"
         style="fill:none;stroke:#808080;stroke-width:0.625;stroke-miterlimit:4;stroke-dasharray:none"
         id="path3040"
         inkscape:connector-curvature="0" />
      <path
         d="m 405.22712,115.93133 0,-18.36 c 0,-1.583999 0.57601,-1.511999 1.368,-0.72 l 22.392,24.84 c 2.736,3.024 5.32801,4.32 6.12,4.32 0.72,0 1.44,-0.144 1.44,-0.864 0,-1.944 -0.216,-2.52 -0.216,-5.904 l 0,-28.728 c 0,-4.175996 1.87201,-4.176001 5.976,-5.328 0.648,-0.216 1.08001,-0.576001 1.08001,-1.224 0,-0.863999 -1.44001,-1.296 -2.52001,-1.296 -2.44799,0 -3.96,0.36 -6.47999,0.36 -2.592,0 -3.74401,-0.36 -6.55201,-0.36 -1.07999,0 -2.51999,0.432001 -2.51999,1.296 0,0.647999 0.504,1.008 1.15199,1.224 4.104,1.151999 5.904,1.152004 5.904,5.328 l 0,22.032 c 0,1.44 -1.08,1.08 -2.016,0 l -23.976,-26.928 c -0.71999,-0.791999 -2.232,-2.592 -3.81599,-2.592 l -7.56001,0 c -1.00799,0 -1.512,0.216 -1.512,0.792 0,1.295999 2.73601,1.800001 4.32,3.456 l 2.664,2.88 c 0.792,0.935999 1.008,3.528003 1.008,6.984 l 0,18.792 c 0,2.736 -0.936,4.968 -3.38399,6.048 -1.584,0.72 -3.96001,1.08 -3.96001,2.16 0,0.72 1.58401,1.152 2.376,1.224 0.504,0 3.24001,-0.432 6.624,-0.432 3.456,0 6.62401,0.432 7.12801,0.432 0.79199,-0.072 2.30399,-0.504 2.30399,-1.224 0,-1.08 -2.376,-1.44 -3.95999,-2.16 -2.448,-1.08 -3.38401,-3.312 -3.38401,-6.048"
         style="fill:none;stroke:#808080;stroke-width:0.625;stroke-miterlimit:4;stroke-dasharray:none"
         id="path3042"
         inkscape:connector-curvature="0" />
      <path
         d="m 462.7225,82.66733 c -2.448,0 -5.4,0.36 -7.92,0.36 -2.592,0 -5.184,-0.36 -7.992,-0.36 -1.08,0 -2.52,0.432001 -2.52,1.296 0,0.647999 0.504,1.008 1.152,1.224 4.104,1.151999 5.904,1.224004 5.904,5.328 l 0,26.28 c 0,2.664 -0.936,4.104 -3.384,5.184 -1.584,0.72 -3.96,1.08 -3.96,2.16 0,0.72 1.584,1.152 2.376,1.224 0.504,0 4.752,-0.432 8.136,-0.432 3.456,0 8.208,0.432 8.712,0.432 0.792,-0.072 2.304,-0.504 2.304,-1.224 0,-1.08 -2.376,-1.44 -3.96,-2.16 -2.448,-1.08 -3.384,-2.52 -3.384,-5.184 l 0,-26.28 c 0,-4.103996 1.872,-4.176001 5.976,-5.328 0.648,-0.216 1.08,-0.576001 1.08,-1.224 0,-0.863999 -1.44,-1.296 -2.52,-1.296"
         style="fill:none;stroke:#808080;stroke-width:0.625;stroke-miterlimit:4;stroke-dasharray:none"
         id="path3044"
         inkscape:connector-curvature="0" />
      <path
         d="m 507.35125,89.79533 c 0,-2.807997 0.648,-3.528001 3.96,-4.608 0.648,-0.216 1.224,-0.576001 1.224,-1.224 0,-0.863999 -1.44,-1.296 -2.52,-1.296 -1.08,0 -3.528,0.36 -4.608,0.36 -1.08,0 -3.6,-0.36 -4.68,-0.36 -1.08,0 -2.52,0.432001 -2.52,1.296 0,0.647999 0.576,1.08 1.224,1.296 3.024,1.007999 3.816,0.936004 3.816,4.68 l 0,13.392 c 0,11.23199 -2.44801,18.72 -12.312,18.72 -8.78399,0 -10.872,-5.76001 -10.872,-17.28 l 0,-14.4 c 0,-2.879997 1.728,-4.176001 4.824,-5.184 0.648,-0.216 1.08,-0.576001 1.08,-1.224 0,-0.863999 -1.44,-1.296 -2.52,-1.296 -2.448,0 -5.688,0.36 -8.208,0.36 -2.592,0 -2.88,-0.36 -5.688,-0.36 -1.08,0 -2.52,0.432001 -2.52,1.296 0,0.647999 0.504,1.008 1.152,1.224 4.536,1.511998 5.04,1.872003 5.04,5.328 l 0,16.848 c 0,11.01599 3.31201,18.288 16.2,18.288 10.58399,0 17.928,-7.27201 17.928,-18.432 l 0,-17.424"
         style="fill:none;stroke:#808080;stroke-width:0.625;stroke-miterlimit:4;stroke-dasharray:none"
         id="path3046"
         inkscape:connector-curvature="0" />
      <path
         d="m 562.66075,115.93133 -1.224,-23.76 c -0.216,-4.103996 0.576,-5.544001 2.808,-6.48 2.88,-1.223999 3.456,-1.440001 3.456,-2.16 0,-0.719999 -0.288,-1.224 -1.152,-1.224 -2.304,0 -7.272,0.72 -9.144,0.72 -1.872,0 -2.88,10e-7 -3.672,1.656 l -11.304,23.472 c -1.368,2.736 -1.656,1.584 -2.232,0.072 l -8.424,-20.664 c -1.368,-3.239997 -2.592,-4.536 -4.536,-4.536 -3.312,0 -5.4,-0.36 -7.992,-0.36 -0.864,0 -2.448,-0.072 -2.448,1.008 0,1.151999 2.592,2.232001 3.888,3.456 1.8,1.655998 2.952,3.024005 2.304,8.136 l -2.448,19.152 c -0.504,3.6 -1.728,6.48 -4.176,7.56 -1.656,0.72 -3.96,1.08 -3.96,2.16 0,0.72 1.584,1.152 2.376,1.224 0.504,0 3.24,-0.432 6.624,-0.432 3.456,0 6.624,0.432 7.128,0.432 0.792,-0.072 2.304,-0.504 2.304,-1.224 0,-1.08 -2.376,-1.44 -3.96,-2.16 -1.872,-0.864 -2.376,-4.392 -2.232,-6.336 l 1.224,-20.088 c 0.072,-1.799998 0.72,-2.807997 1.8,-0.072 l 8.856,22.68 c 1.512,3.888 2.088,4.464 2.808,4.464 0.648,0 3.672,-6.192 3.96,-6.84 l 9.72,-22.32 c 0.504,-1.295999 1.8,-1.583999 1.872,-0.216 l 0.936,22.68 c 0.144,2.664 -0.936,4.968 -3.384,6.048 -1.584,0.72 -3.96,1.08 -3.96,2.16 0,0.72 1.584,1.152 2.376,1.224 0.504,0 4.752,-0.432 8.136,-0.432 3.456,0 8.208,0.432 8.712,0.432 0.792,-0.072 2.304,-0.504 2.304,-1.224 0,-1.08 -2.376,-1.44 -3.96,-2.16 -2.448,-1.08 -3.24,-3.384 -3.384,-6.048"
         style="fill:none;stroke:#808080;stroke-width:0.625;stroke-miterlimit:4;stroke-dasharray:none"
         id="path3048"
         inkscape:connector-curvature="0" />
      <path
         d="m 132.73525,141.70733 c -7.05599,0 -12.816,5.32801 -12.816,12.096 0,3.528 1.656,6.12 4.248,8.28 l 9.72,8.208 c 1.8,1.512 2.88,3.312 2.88,5.76 0,3.6 -2.664,6.912 -6.264,6.912 -4.176,0 -6.984,-2.088 -7.776,-4.68 -0.648,-2.16 -1.296,-3.384 -2.448,-3.384 -0.72,0 -1.224,0.864 -1.368,1.728 -0.216,0.936 -0.504,3.96 -0.504,4.968 0,1.008 0.648,1.368 3.312,2.592 1.728,0.792 5.04,1.584 7.56,1.584 7.19999,0 14.472,-5.25601 14.472,-12.312 0,-3.024 -1.224,-5.472 -3.456,-7.344 l -10.152,-8.568 c -2.16,-1.8 -3.672,-3.672 -3.672,-6.048 0,-3.168 2.808,-5.688 5.904,-5.688 2.088,0 4.968,0.864 5.688,2.592 1.08,2.592 2.016,3.312 2.88,3.312 1.08,0 1.44,-1.008 1.44,-1.944 0,-1.368 -0.072,-2.952 -0.288,-4.104 -0.144,-0.792 -0.792,-1.368 -2.16,-2.088 -1.584,-0.792 -4.896,-1.872 -7.2,-1.872"
         style="fill:none;stroke:#808080;stroke-width:0.625;stroke-miterlimit:4;stroke-dasharray:none"
         id="path3050"
         inkscape:connector-curvature="0" />
      <path
         d="m 162.55787,165.39533 5.04,-14.328 c 0.288,-0.72 0.57601,-0.936 0.792,-0.216 l 4.39201,13.464 c 0.71999,2.304 0.64799,2.592 -0.79201,2.592 l -8.784,0 c -1.29599,0 -1.07999,-0.36 -0.648,-1.512 m 20.52,19.296 c 2.376,0 4.96801,0.432 6.624,0.432 1.368,0 2.088,-0.36 2.088,-1.152 0,-0.72 -0.648,-1.44 -2.88,-2.232 -3.52799,-1.296 -4.32,-3.24001 -6.408,-9.072 l -9.504,-26.856 c -1.00799,-2.808 -1.44,-5.184 -2.664,-5.184 -0.43199,0 -1.728,2.016 -3.096,2.16 -0.79199,0.072 -0.792,1.008 -2.016,4.104 l -11.016,30.456 c -1.07999,2.952 -1.008,3.312 -3.384,4.392 -1.58399,0.72 -3.96,1.08 -3.96,2.16 0,0.792 1.00801,1.224 2.376,1.224 1.08,0 2.73601,-0.432 4.536,-0.432 1.368,0 4.53601,0.432 5.904,0.432 1.8,0 2.52,-0.432 2.52,-1.224 0,-0.72 -0.792,-1.512 -2.664,-2.016 -2.08799,-0.576 -2.01599,-1.728 -1.584,-3.024 l 2.736,-7.848 c 0.288,-0.72 0.79201,-0.792 1.152,-0.792 l 12.024,0 c 0.576,0 0.93601,0.216 1.15201,0.864 l 2.08799,6.84 c 0.36,1.224 0.504,2.592 -2.08799,3.816 -1.584,0.72 -3.88801,1.08 -3.88801,2.16 0,0.792 1.36801,1.224 2.304,1.224 2.16,0 4.89601,-0.432 9.648,-0.432"
         style="fill:none;stroke:#808080;stroke-width:0.625;stroke-miterlimit:4;stroke-dasharray:none"
         id="path3052"
         inkscape:connector-curvature="0" />
      <path
         d="m 204.13337,175.69133 0,-18.36 c 0,-1.584 0.57601,-1.512 1.368,-0.72 l 22.392,24.84 c 2.736,3.024 5.32801,4.32 6.12,4.32 0.72,0 1.44,-0.144 1.44,-0.864 0,-1.944 -0.216,-2.52 -0.216,-5.904 l 0,-28.728 c 0,-4.176 1.87201,-4.176 5.97601,-5.328 0.64799,-0.216 1.07999,-0.576 1.07999,-1.224 0,-0.864 -1.44,-1.296 -2.52,-1.296 -2.44799,0 -3.96,0.36 -6.48,0.36 -2.59199,0 -3.744,-0.36 -6.552,-0.36 -1.07999,0 -2.52,0.432 -2.52,1.296 0,0.648 0.50401,1.008 1.152,1.224 4.104,1.152 5.904,1.152 5.904,5.328 l 0,22.032 c 0,1.44 -1.08,1.08 -2.016,0 l -23.976,-26.928 c -0.71999,-0.792 -2.232,-2.592 -3.81599,-2.592 l -7.56001,0 c -1.00799,0 -1.512,0.216 -1.512,0.792 0,1.296 2.73601,1.8 4.32,3.456 l 2.664,2.88 c 0.792,0.936 1.008,3.528 1.008,6.984 l 0,18.792 c 0,2.736 -0.936,4.968 -3.38399,6.048 -1.584,0.72 -3.96001,1.08 -3.96001,2.16 0,0.72 1.58401,1.152 2.376,1.224 0.504,0 3.24001,-0.432 6.624,-0.432 3.456,0 6.62401,0.432 7.128,0.432 0.792,-0.072 2.304,-0.504 2.304,-1.224 0,-1.08 -2.376,-1.44 -3.96,-2.16 -2.44799,-1.08 -3.384,-3.312 -3.384,-6.048"
         style="fill:none;stroke:#808080;stroke-width:0.625;stroke-miterlimit:4;stroke-dasharray:none"
         id="path3054"
         inkscape:connector-curvature="0" />
      <path
         d="m 270.84475,141.20333 c -14.18399,0 -26.064,9.79201 -26.064,23.976 0,12.81599 12.52801,20.952 24.696,20.952 4.032,0 9.072,-0.792 11.952,-1.8 1.8,-0.648 2.16,-1.152 3.312,-3.528 0.648,-1.368 2.88,-6.264 2.88,-6.84 0,-1.296 -0.576,-2.016 -1.152,-2.016 -0.576,0 -1.008,0.144 -1.296,0.576 -3.816,5.39999 -5.47201,10.44 -12.744,10.44 -11.44799,0 -19.584,-9.79201 -19.584,-20.808 0,-9.93599 7.27201,-17.712 16.56,-17.712 5.11199,0 12.024,1.872 13.032,5.04 0.936,3.024 1.8,4.536 2.88,4.536 0.792,0 1.296,-0.792 1.296,-2.016 0,-3.96 -0.504,-7.776 -2.16,-7.92 -1.656,-0.144 -8.13601,-2.88 -13.608,-2.88"
         style="fill:none;stroke:#808080;stroke-width:0.625;stroke-miterlimit:4;stroke-dasharray:none"
         id="path3056"
         inkscape:connector-curvature="0" />
      <path
         d="m 309.41762,148.61933 0,27.936 c 0,2.664 -0.936,4.104 -3.38399,5.184 -1.584,0.72 -3.96001,1.08 -3.96001,2.16 0,0.72 1.58401,1.152 2.37601,1.224 0.50399,0 4.752,-0.432 8.13599,-0.432 3.456,0 8.20801,0.432 8.712,0.432 0.792,-0.072 2.30401,-0.504 2.30401,-1.224 0,-1.08 -2.37601,-1.44 -3.96001,-2.16 -2.44799,-1.08 -3.38399,-2.52 -3.38399,-5.184 l 0,-27.936 c 0,-0.72 0.144,-2.232 0.86399,-2.232 l 11.16001,0 c 1.00799,0 1.944,0.936 2.59199,2.016 0.792,1.368 1.87201,3.24 2.592,3.24 0.864,0 1.008,-0.576 1.008,-1.656 0,-0.792 -0.14399,-3.24 -0.14399,-4.968 0,-1.584 0.28799,-2.448 0.28799,-3.096 0,-0.576 -0.432,-1.296 -1.296,-1.296 -0.86399,0 -1.224,0.576 -2.08799,1.08 -1.296,0.72 -2.44801,1.224 -5.04001,1.224 l -25.128,0 c -3.95999,0 -5.76,-2.16 -6.84,-2.16 -0.71999,0 -1.224,0.864 -1.224,1.8 0,0.72 0.144,2.088 0.144,3.24 0,2.304 -0.36,2.88 -0.36,4.536 0,0.648 0.36001,1.656 1.296,1.656 1.008,0 1.51201,-2.016 2.304,-3.456 0.72,-1.296 1.22401,-2.16 3.096,-2.16 l 8.784,0 c 0.72,0 1.152,0.792 1.152,2.232"
         style="fill:none;stroke:#808080;stroke-width:0.625;stroke-miterlimit:4;stroke-dasharray:none"
         id="path3058"
         inkscape:connector-curvature="0" />
      <path
         d="m 344.539,161.21933 c 0,-7.91999 5.76001,-15.984 13.68,-15.984 9.35999,0 14.328,10.22401 14.328,19.584 0,8.56799 -3.74401,17.712 -12.312,17.712 -10.00799,0 -15.696,-11.30401 -15.696,-21.312 m 16.416,-19.296 c -14.25599,0 -24.48,8.20801 -24.48,21.816 0,13.10399 9.86401,22.104 22.752,22.104 12.31199,0 21.384,-10.87201 21.384,-23.184 0,-10.51199 -9.86401,-20.736 -19.656,-20.736"
         style="fill:none;stroke:#808080;stroke-width:0.625;stroke-miterlimit:4;stroke-dasharray:none"
         id="path3060"
         inkscape:connector-curvature="0" />
      <path
         d="m 414.37112,167.26733 c -0.93599,-1.368 -1.8,-2.952 -1.8,-3.6 0,-0.648 0.28801,-0.576 1.224,-1.296 3.384,-2.448 5.688,-5.47201 5.688,-10.08 0,-7.27199 -8.064,-10.296 -15.33599,-10.296 -6.408,0 -9.36001,0.216 -15.69601,0.72 -1.51199,0.072 -2.52,0.432 -2.52,1.296 0,0.648 0.50401,1.008 1.152,1.224 4.104,1.152 5.904,1.224 5.904,5.328 l 0,25.992 c 0,2.664 -0.936,4.104 -3.384,5.184 -1.58399,0.72 -3.96,1.08 -3.96,2.16 0,0.72 1.58401,1.152 2.376,1.224 0.504,0 4.82401,-0.432 7.92,-0.432 3.456,0 8.20801,0.432 8.712,0.432 0.792,-0.072 2.304,-0.504 2.304,-1.224 0,-1.08 -2.376,-1.44 -3.95999,-2.16 -2.448,-1.08 -3.384,-2.52 -3.384,-5.184 l 0,-8.64 c 0,-1.44 0.504,-1.944 2.01599,-1.944 3.024,0 5.11201,0.936 5.976,2.376 3.744,6.26399 7.12801,10.512 11.376,14.976 2.016,2.16 5.61601,3.384 9.14401,3.384 2.51999,0 5.03999,-0.864 5.03999,-2.16 0,-0.576 -0.432,-1.152 -1.224,-1.224 -1.58399,-0.144 -3.24,-0.504 -4.104,-1.152 -5.39999,-3.888 -9.936,-9.64801 -13.464,-14.904 m -11.80799,-3.888 c -2.088,0 -2.952,-0.576 -2.952,-1.872 l 0,-13.896 c 0,-1.368 1.584,-2.448 3.59999,-2.448 4.824,0 9.072,3.384 9.072,8.208 0,3.74399 -1.584,6.192 -4.392,8.568 -0.64799,0.72 -3.168,1.44 -5.32799,1.44"
         style="fill:none;stroke:#808080;stroke-width:0.625;stroke-miterlimit:4;stroke-dasharray:none"
         id="path3062"
         inkscape:connector-curvature="0" />
      <path
         d="m 471.35125,149.55533 c 0,-2.808 0.648,-3.528 3.96,-4.608 0.648,-0.216 1.224,-0.576 1.224,-1.224 0,-0.864 -1.44,-1.296 -2.52,-1.296 -1.08,0 -3.528,0.36 -4.608,0.36 -1.08,0 -3.6,-0.36 -4.68,-0.36 -1.08,0 -2.52,0.432 -2.52,1.296 0,0.648 0.576,1.08 1.224,1.296 3.024,1.008 3.816,0.936 3.816,4.68 l 0,13.392 c 0,11.23199 -2.44801,18.72 -12.312,18.72 -8.78399,0 -10.872,-5.76001 -10.872,-17.28 l 0,-14.4 c 0,-2.88 1.728,-4.176 4.824,-5.184 0.648,-0.216 1.08,-0.576 1.08,-1.224 0,-0.864 -1.44,-1.296 -2.52,-1.296 -2.448,0 -5.688,0.36 -8.208,0.36 -2.592,0 -2.88,-0.36 -5.688,-0.36 -1.08,0 -2.52,0.432 -2.52,1.296 0,0.648 0.504,1.008 1.152,1.224 4.536,1.512 5.04,1.872 5.04,5.328 l 0,16.848 c 0,11.01599 3.31201,18.288 16.2,18.288 10.58399,0 17.928,-7.27201 17.928,-18.432 l 0,-17.424"
         style="fill:none;stroke:#808080;stroke-width:0.625;stroke-miterlimit:4;stroke-dasharray:none"
         id="path3064"
         inkscape:connector-curvature="0" />
      <path
         d="m 526.66075,175.69133 -1.224,-23.76 c -0.216,-4.104 0.576,-5.544 2.808,-6.48 2.88,-1.224 3.456,-1.44 3.456,-2.16 0,-0.72 -0.288,-1.224 -1.152,-1.224 -2.304,0 -7.272,0.72 -9.144,0.72 -1.872,0 -2.88,0 -3.672,1.656 l -11.304,23.472 c -1.368,2.736 -1.656,1.584 -2.232,0.072 l -8.424,-20.664 c -1.368,-3.24 -2.592,-4.536 -4.536,-4.536 -3.312,0 -5.4,-0.36 -7.992,-0.36 -0.864,0 -2.448,-0.072 -2.448,1.008 0,1.152 2.592,2.232 3.888,3.456 1.8,1.656 2.952,3.024 2.304,8.136 l -2.448,19.152 c -0.504,3.6 -1.728,6.48 -4.176,7.56 -1.656,0.72 -3.96,1.08 -3.96,2.16 0,0.72 1.584,1.152 2.376,1.224 0.504,0 3.24,-0.432 6.624,-0.432 3.456,0 6.624,0.432 7.128,0.432 0.792,-0.072 2.304,-0.504 2.304,-1.224 0,-1.08 -2.376,-1.44 -3.96,-2.16 -1.872,-0.864 -2.376,-4.392 -2.232,-6.336 l 1.224,-20.088 c 0.072,-1.8 0.72,-2.808 1.8,-0.072 l 8.856,22.68 c 1.512,3.88799 2.088,4.464 2.808,4.464 0.648,0 3.672,-6.192 3.96,-6.84 l 9.72,-22.32 c 0.504,-1.296 1.8,-1.584 1.872,-0.216 l 0.936,22.68 c 0.144,2.664 -0.936,4.968 -3.384,6.048 -1.584,0.72 -3.96,1.08 -3.96,2.16 0,0.72 1.584,1.152 2.376,1.224 0.504,0 4.752,-0.432 8.136,-0.432 3.456,0 8.208,0.432 8.712,0.432 0.792,-0.072 2.304,-0.504 2.304,-1.224 0,-1.08 -2.376,-1.44 -3.96,-2.16 -2.448,-1.08 -3.24,-3.384 -3.384,-6.048"
         style="fill:none;stroke:#808080;stroke-width:0.625;stroke-miterlimit:4;stroke-dasharray:none"
         id="path3066"
         inkscape:connector-curvature="0" />
    </g>
  </g>
</svg>
